<svg xmlns="http://www.w3.org/2000/svg" viewBox="0 0 507.67 75.1" width="507.67" height="75.1" role="img" aria-label="baskıurunleri.com">
<title>baskıurunleri.com</title>
<rect x="10" y="11.1" width="54" height="54" rx="12.96" fill="#F4821F"/><rect x="21.88" y="25.68" width="21.6" height="16.2" rx="3.24" fill="#ffffff" opacity="0.5"/><rect x="24.58" y="30.54" width="21.6" height="16.2" rx="3.24" fill="#ffffff" opacity="0.8"/><rect x="27.28" y="35.4" width="21.6" height="16.2" rx="3.24" fill="#ffffff"/>
<g transform="translate(79,0)">
<path d="M29.486 45.367999999999995Q29.486 49.507999999999996 26.634 51.854Q23.782 54.199999999999996 18.63 54.199999999999996H2.576V21.769999999999996H18.124Q23.092 21.769999999999996 25.921 23.977999999999994Q28.75 26.185999999999996 28.75 30.187999999999995Q28.75 33.03999999999999 27.255 34.949Q25.759999999999998 36.858 23.276 37.547999999999995Q26.128 38.19199999999999 27.807000000000002 40.376999999999995Q29.486 42.562 29.486 45.367999999999995ZM11.592 34.64999999999999H16.146Q19.55 34.64999999999999 19.55 31.843999999999998Q19.55 28.945999999999994 16.146 28.945999999999994H11.592ZM20.24 44.08Q20.24 42.608 19.342999999999996 41.82599999999999Q18.445999999999998 41.044 16.79 41.044H11.592V46.931999999999995H16.836Q20.24 46.931999999999995 20.24 44.08Z M53.358 48.91H41.858L40.11 54.199999999999996H30.633999999999997L42.455999999999996 21.769999999999996H52.852L64.628 54.199999999999996H55.105999999999995ZM51.104 42.01 47.608 31.521999999999995 44.158 42.01Z M66.00599999999999 44.126H75.61999999999999Q75.75799999999998 45.827999999999996 76.63199999999998 46.61Q77.50599999999999 47.391999999999996 78.88599999999998 47.391999999999996Q80.12799999999999 47.391999999999996 80.93299999999999 46.770999999999994Q81.73799999999999 46.14999999999999 81.73799999999999 45.04599999999999Q81.73799999999999 43.62 80.404 42.837999999999994Q79.07 42.056 76.07999999999998 41.089999999999996Q72.90599999999999 40.032 70.951 39.04299999999999Q68.99599999999998 38.053999999999995 67.54699999999998 36.144999999999996Q66.09799999999998 34.236 66.09799999999998 31.153999999999996Q66.09799999999998 28.025999999999996 67.66199999999998 25.794999999999995Q69.22599999999998 23.563999999999997 71.98599999999999 22.413999999999994Q74.74599999999998 21.263999999999996 78.24199999999999 21.263999999999996Q83.89999999999999 21.263999999999996 87.28099999999998 23.908999999999995Q90.66199999999998 26.553999999999995 90.89199999999998 31.337999999999997H81.094Q81.04799999999999 29.865999999999996 80.19699999999999 29.129999999999995Q79.34599999999999 28.393999999999995 78.01199999999999 28.393999999999995Q76.99999999999999 28.393999999999995 76.356 28.991999999999997Q75.71199999999999 29.589999999999996 75.71199999999999 30.693999999999996Q75.71199999999999 31.613999999999997 76.42499999999998 32.28099999999999Q77.13799999999999 32.94799999999999 78.196 33.431Q79.25399999999999 33.913999999999994 81.32399999999998 34.64999999999999Q84.40599999999998 35.708 86.40699999999998 36.742999999999995Q88.40799999999999 37.77799999999999 89.85699999999999 39.64099999999999Q91.30599999999998 41.504 91.30599999999998 44.355999999999995Q91.30599999999998 47.254 89.85699999999999 49.554Q88.40799999999999 51.854 85.67099999999999 53.188Q82.93399999999998 54.522 79.20799999999998 54.522Q73.54999999999998 54.522 69.91599999999998 51.830999999999996Q66.28199999999998 49.13999999999999 66.00599999999999 44.126Z M114.07399999999998 54.199999999999996 103.90799999999999 39.986V54.199999999999996H94.89199999999998V21.769999999999996H103.90799999999999V35.754L113.98199999999999 21.769999999999996H124.37799999999999L112.46399999999998 37.501999999999995L124.97599999999998 54.199999999999996Z M136.704 21.769999999999996V54.199999999999996H127.68799999999999V21.769999999999996Z" fill="#F4821F"/>
<path d="M150.088 21.769999999999996V40.583999999999996Q150.088 43.205999999999996 151.30700000000002 44.63199999999999Q152.526 46.05799999999999 155.01 46.05799999999999Q157.494 46.05799999999999 158.75900000000001 44.608999999999995Q160.024 43.16 160.024 40.583999999999996V21.769999999999996H169.04000000000002V40.583999999999996Q169.04000000000002 45.04599999999999 167.154 48.196999999999996Q165.268 51.348 162.025 52.935Q158.782 54.522 154.82600000000002 54.522Q150.87 54.522 147.765 52.935Q144.66 51.348 142.889 48.22Q141.118 45.092 141.118 40.583999999999996V21.769999999999996ZM146.50000000000003 15.283999999999999Q146.50000000000003 13.673999999999992 147.53500000000003 12.615999999999993Q148.57000000000002 11.557999999999993 150.13400000000001 11.557999999999993Q151.74400000000003 11.557999999999993 152.80200000000002 12.615999999999993Q153.86 13.673999999999992 153.86 15.283999999999999Q153.86 16.847999999999995 152.80200000000002 17.882999999999996Q151.74400000000003 18.917999999999996 150.13400000000001 18.917999999999996Q148.57000000000002 18.917999999999996 147.53500000000003 17.882999999999996Q146.50000000000003 16.847999999999995 146.50000000000003 15.283999999999999ZM156.29800000000003 15.283999999999999Q156.29800000000003 13.673999999999992 157.33300000000003 12.615999999999993Q158.36800000000002 11.557999999999993 159.93200000000002 11.557999999999993Q161.496 11.557999999999993 162.55400000000003 12.615999999999993Q163.61200000000002 13.673999999999992 163.61200000000002 15.283999999999999Q163.61200000000002 16.847999999999995 162.55400000000003 17.882999999999996Q161.496 18.917999999999996 159.93200000000002 18.917999999999996Q158.36800000000002 18.917999999999996 157.33300000000003 17.882999999999996Q156.29800000000003 16.847999999999995 156.29800000000003 15.283999999999999Z M189.82999999999998 54.199999999999996 183.39 42.239999999999995H182.424V54.199999999999996H173.408V21.769999999999996H187.62199999999999Q191.53199999999998 21.769999999999996 194.24599999999998 23.126999999999995Q196.95999999999998 24.483999999999995 198.33999999999997 26.852999999999994Q199.72 29.221999999999998 199.72 32.166Q199.72 35.477999999999994 197.903 37.985Q196.08599999999998 40.492 192.59 41.55L199.904 54.199999999999996ZM182.424 36.07599999999999H186.886Q188.726 36.07599999999999 189.64600000000002 35.202Q190.566 34.327999999999996 190.566 32.672Q190.566 31.107999999999997 189.623 30.211Q188.68 29.313999999999997 186.886 29.313999999999997H182.424Z M212.04599999999996 21.769999999999996V40.583999999999996Q212.04599999999996 43.205999999999996 213.265 44.63199999999999Q214.48399999999998 46.05799999999999 216.96799999999996 46.05799999999999Q219.45199999999997 46.05799999999999 220.71699999999998 44.608999999999995Q221.98199999999997 43.16 221.98199999999997 40.583999999999996V21.769999999999996H230.998V40.583999999999996Q230.998 45.04599999999999 229.11199999999997 48.196999999999996Q227.22599999999997 51.348 223.98299999999998 52.935Q220.73999999999998 54.522 216.784 54.522Q212.82799999999997 54.522 209.72299999999996 52.935Q206.61799999999997 51.348 204.84699999999998 48.22Q203.07599999999996 45.092 203.07599999999996 40.583999999999996V21.769999999999996ZM208.458 15.283999999999999Q208.458 13.673999999999992 209.493 12.615999999999993Q210.528 11.557999999999993 212.09199999999998 11.557999999999993Q213.702 11.557999999999993 214.76 12.615999999999993Q215.81799999999998 13.673999999999992 215.81799999999998 15.283999999999999Q215.81799999999998 16.847999999999995 214.76 17.882999999999996Q213.702 18.917999999999996 212.09199999999998 18.917999999999996Q210.528 18.917999999999996 209.493 17.882999999999996Q208.458 16.847999999999995 208.458 15.283999999999999ZM218.256 15.283999999999999Q218.256 13.673999999999992 219.291 12.615999999999993Q220.326 11.557999999999993 221.89 11.557999999999993Q223.45399999999998 11.557999999999993 224.512 12.615999999999993Q225.57 13.673999999999992 225.57 15.283999999999999Q225.57 16.847999999999995 224.512 17.882999999999996Q223.45399999999998 18.917999999999996 221.89 18.917999999999996Q220.326 18.917999999999996 219.291 17.882999999999996Q218.256 16.847999999999995 218.256 15.283999999999999Z M265.40399999999994 54.199999999999996H256.388L244.38199999999998 36.07599999999999V54.199999999999996H235.36599999999996V21.769999999999996H244.38199999999998L256.388 40.123999999999995V21.769999999999996H265.40399999999994Z M278.9719999999999 47.3H289.04599999999994V54.199999999999996H269.95599999999996V21.769999999999996H278.9719999999999Z M300.9579999999999 28.991999999999997V34.282H311.30799999999994V41.135999999999996H300.9579999999999V46.977999999999994H312.68799999999993V54.199999999999996H291.94199999999995V21.769999999999996H312.68799999999993V28.991999999999997Z M332.9719999999999 54.199999999999996 326.5319999999999 42.239999999999995H325.5659999999999V54.199999999999996H316.54999999999995V21.769999999999996H330.76399999999995Q334.6739999999999 21.769999999999996 337.3879999999999 23.126999999999995Q340.1019999999999 24.483999999999995 341.4819999999999 26.852999999999994Q342.8619999999999 29.221999999999998 342.8619999999999 32.166Q342.8619999999999 35.477999999999994 341.04499999999996 37.985Q339.22799999999995 40.492 335.7319999999999 41.55L343.04599999999994 54.199999999999996ZM325.5659999999999 36.07599999999999H330.0279999999999Q331.86799999999994 36.07599999999999 332.7879999999999 35.202Q333.7079999999999 34.327999999999996 333.7079999999999 32.672Q333.7079999999999 31.107999999999997 332.76499999999993 30.211Q331.82199999999995 29.313999999999997 330.0279999999999 29.313999999999997H325.5659999999999Z M355.3719999999999 21.769999999999996V54.199999999999996H346.35599999999994V21.769999999999996ZM347.1839999999999 15.283999999999999Q347.1839999999999 13.673999999999992 348.21899999999994 12.615999999999993Q349.2539999999999 11.557999999999993 350.8179999999999 11.557999999999993Q352.42799999999994 11.557999999999993 353.48599999999993 12.615999999999993Q354.5439999999999 13.673999999999992 354.5439999999999 15.283999999999999Q354.5439999999999 16.847999999999995 353.48599999999993 17.882999999999996Q352.42799999999994 18.917999999999996 350.8179999999999 18.917999999999996Q349.2539999999999 18.917999999999996 348.21899999999994 17.882999999999996Q347.1839999999999 16.847999999999995 347.1839999999999 15.283999999999999Z" fill="#15233B"/>
<path d="M363.1399999999999 35.354Q363.1399999999999 34.385999999999996 363.83299999999986 33.748Q364.5259999999999 33.11 365.6699999999999 33.11Q366.7919999999999 33.11 367.4849999999999 33.748Q368.1779999999999 34.385999999999996 368.1779999999999 35.354Q368.1779999999999 36.3 367.4849999999999 36.938Q366.7919999999999 37.576 365.6699999999999 37.576Q364.5259999999999 37.576 363.83299999999986 36.949Q363.1399999999999 36.321999999999996 363.1399999999999 35.354Z M375.7459999999999 24.904Q378.0999999999999 24.904 379.7059999999999 26.191000000000003Q381.3119999999999 27.478 381.7739999999999 29.788H377.1979999999999Q376.8019999999999 28.578 375.6579999999999 28.578Q374.84399999999994 28.578 374.3709999999999 29.249Q373.8979999999999 29.919999999999998 373.8979999999999 31.218Q373.8979999999999 32.516 374.3709999999999 33.19799999999999Q374.84399999999994 33.879999999999995 375.6579999999999 33.879999999999995Q376.8239999999999 33.879999999999995 377.1979999999999 32.67H381.7739999999999Q381.3119999999999 34.958 379.7059999999999 36.256Q378.0999999999999 37.554 375.7459999999999 37.554Q373.9199999999999 37.554 372.5009999999999 36.784Q371.08199999999994 36.013999999999996 370.28999999999996 34.583999999999996Q369.49799999999993 33.153999999999996 369.49799999999993 31.218Q369.49799999999993 29.304 370.28999999999996 27.874Q371.08199999999994 26.444 372.5009999999999 25.674Q373.9199999999999 24.904 375.7459999999999 24.904Z M382.8519999999999 31.218Q382.8519999999999 29.304 383.6989999999999 27.874Q384.5459999999999 26.444 386.0089999999999 25.674Q387.4719999999999 24.904 389.3199999999999 24.904Q391.1679999999999 24.904 392.63099999999986 25.674Q394.0939999999999 26.444 394.9409999999999 27.874Q395.7879999999999 29.304 395.7879999999999 31.218Q395.7879999999999 33.132 394.9409999999999 34.57299999999999Q394.0939999999999 36.013999999999996 392.6199999999999 36.784Q391.1459999999999 37.554 389.2979999999999 37.554Q387.4499999999999 37.554 385.98699999999985 36.784Q384.5239999999999 36.013999999999996 383.6879999999999 34.583999999999996Q382.8519999999999 33.153999999999996 382.8519999999999 31.218ZM391.4099999999999 31.218Q391.4099999999999 29.964 390.8049999999999 29.304Q390.1999999999999 28.644 389.3199999999999 28.644Q388.4399999999999 28.644 387.8459999999999 29.304Q387.2519999999999 29.964 387.2519999999999 31.218Q387.2519999999999 32.494 387.8239999999999 33.153999999999996Q388.3959999999999 33.814 389.2979999999999 33.814Q390.1999999999999 33.814 390.8049999999999 33.143Q391.4099999999999 32.472 391.4099999999999 31.218Z M418.6679999999999 30.206V37.4H414.35599999999994V30.778Q414.35599999999994 29.788 413.8059999999999 29.238Q413.2559999999999 28.688 412.30999999999995 28.688Q411.3639999999999 28.688 410.8139999999999 29.238Q410.2639999999999 29.788 410.2639999999999 30.778V37.4H405.95199999999994V30.778Q405.95199999999994 29.788 405.4129999999999 29.238Q404.8739999999999 28.688 403.92799999999994 28.688Q402.9599999999999 28.688 402.4099999999999 29.238Q401.8599999999999 29.788 401.8599999999999 30.778V37.4H397.54799999999994V25.058H401.8599999999999V26.686Q402.4319999999999 25.894 403.3449999999999 25.421Q404.2579999999999 24.948 405.4459999999999 24.948Q406.80999999999995 24.948 407.87699999999995 25.542Q408.9439999999999 26.136 409.55999999999995 27.214Q410.2199999999999 26.201999999999998 411.2979999999999 25.575Q412.3759999999999 24.948 413.6739999999999 24.948Q416.0059999999999 24.948 417.3369999999999 26.356Q418.6679999999999 27.764 418.6679999999999 30.206Z" fill="#15233B"/>
</g>
</svg>